<?xml version="1.0" standalone="no"?>
<!DOCTYPE svg PUBLIC "-//W3C//DTD SVG 20010904//EN"
 "http://www.w3.org/TR/2001/REC-SVG-20010904/DTD/svg10.dtd">
<svg version="1.0" xmlns="http://www.w3.org/2000/svg"
 width="24" height="24" viewBox="0 0 52 52"
 preserveAspectRatio="xMidYMid meet">

<g transform="translate(0.000000,52.000000) scale(0.010000,-0.010000)"
fill="#D9D9D9" stroke="none">
<path d="M1005 5105 c-221 -49 -399 -222 -450 -438 -22 -95 -22 -4110 0 -4206
37 -157 168 -321 313 -394 144 -72 45 -68 1732 -65 l1515 3 67 26 c201 78 331
223 383 424 22 87 23 3364 1 3416 -22 50 -1190 1214 -1238 1234 -33 13 -171
15 -1150 14 -885 0 -1125 -3 -1173 -14z m2097 -637 l3 -343 27 -74 c67 -184
215 -325 408 -387 47 -15 104 -18 393 -22 l337 -4 -2 -1556 -3 -1557 -25 -48
c-29 -58 -86 -112 -149 -141 l-46 -21 -1485 0 c-1196 0 -1492 3 -1522 13 -47
17 -103 61 -139 111 -63 85 -60 -38 -57 2152 l3 1994 24 53 c28 63 103 134
164 155 36 13 182 16 1054 16 l1012 1 3 -342z m753 -317 l190 -191 -205 0
c-195 0 -207 1 -255 24 -65 31 -112 78 -144 146 -25 52 -26 64 -29 255 l-4
199 129 -121 c70 -67 213 -207 318 -312z"/>
<path d="M1393 3220 c-139 -33 -170 -217 -51 -290 32 -20 53 -20 1213 -20
1104 0 1182 1 1214 18 52 26 74 63 79 129 3 48 0 64 -20 92 -13 19 -39 44 -58
55 -35 21 -44 21 -1190 23 -635 0 -1170 -2 -1187 -7z"/>
<path d="M1354 2200 c-79 -39 -110 -150 -61 -220 12 -18 35 -43 50 -54 l28
-21 1189 0 1189 0 28 21 c54 40 75 83 71 142 -5 56 -25 91 -72 126 -27 21 -33
21 -1204 24 -1164 2 -1177 2 -1218 -18z"/>
<path d="M1342 1190 c-47 -29 -72 -76 -72 -135 0 -59 25 -106 72 -135 32 -20
53 -20 1218 -20 1165 0 1186 0 1218 20 93 57 95 197 4 265 -27 20 -45 20
-1217 23 -1174 2 -1190 2 -1223 -18z"/>
</g>
</svg>
