<svg width="32" height="32" viewBox="0 0 32 32" fill="none" xmlns="http://www.w3.org/2000/svg">
<mask id="mask0_3868_5886" style="mask-type:alpha" maskUnits="userSpaceOnUse" x="0" y="0" width="32" height="32">
<rect width="32" height="32" fill="#D9D9D9"/>
</mask>
<g mask="url(#mask0_3868_5886)">
<path d="M17.5508 11.2836V20.7169L22.2754 16.0002L17.5508 11.2836ZM6.07178 28.1995C5.4418 28.1995 4.9058 27.9785 4.46378 27.5365C4.02178 27.0945 3.80078 26.5585 3.80078 25.9285V6.07197C3.80078 5.43981 4.02178 4.90195 4.46378 4.45837C4.9058 4.01477 5.4418 3.79297 6.07178 3.79297H25.9283C26.5605 3.79297 27.0983 4.01477 27.5419 4.45837C27.9855 4.90195 28.2073 5.43981 28.2073 6.07197V25.9285C28.2073 26.5585 27.9855 27.0945 27.5419 27.5365C27.0983 27.9785 26.5605 28.1995 25.9283 28.1995H6.07178ZM10.8522 25.9285V6.07197H6.07178V25.9285H10.8522ZM13.1312 25.9285H25.9283V6.07197H13.1312V25.9285Z" fill="white"/>
</g>
</svg>
