<svg width="32" height="32" viewBox="0 0 32 32" fill="none" xmlns="http://www.w3.org/2000/svg">
<mask id="mask0_3868_1184" style="mask-type:alpha" maskUnits="userSpaceOnUse" x="0" y="0" width="32" height="32">
<rect width="32" height="32" fill="#D9D9D9"/>
</mask>
<g mask="url(#mask0_3868_1184)">
<path d="M22.2754 20.7167V11.2833L17.5508 16L22.2754 20.7167ZM6.07178 28.1993C5.4418 28.1993 4.9058 27.9783 4.46378 27.5363C4.02178 27.0942 3.80078 26.5582 3.80078 25.9283V6.07172C3.80078 5.43957 4.02178 4.9017 4.46378 4.45813C4.9058 4.01453 5.4418 3.79272 6.07178 3.79272H25.9283C26.5605 3.79272 27.0983 4.01453 27.5419 4.45813C27.9855 4.9017 28.2073 5.43957 28.2073 6.07172V25.9283C28.2073 26.5582 27.9855 27.0942 27.5419 27.5363C27.0983 27.9783 26.5605 28.1993 25.9283 28.1993H6.07178ZM10.8522 25.9283V6.07172H6.07178V25.9283H10.8522ZM13.1312 25.9283H25.9283V6.07172H13.1312V25.9283Z" fill="white"/>
</g>
</svg>
